<svg viewBox="0 0 100 100" xmlns="http://www.w3.org/2000/svg">
  <g>
    <circle cx="36" cy="18" r="4.5" fill="#2da89e"/>
    <circle cx="64" cy="18" r="4.5" fill="#2da89e"/>
    <rect x="40" y="33" width="20" height="5" rx="2.5" transform="rotate(-12, 50, 35.5)" fill="#1a9088"/>
    <path d="M 40 56 A 10 10 0 0 1 60 56 A 10 10 0 0 1 50 64" fill="none" stroke="#0f766e" stroke-width="3.5" stroke-linecap="round"/>
    <circle cx="50" cy="73" r="3" fill="#0f766e"/>
  </g>
  <path d="M 57 93 L 45 83 C 42 80, 42 78, 46 78 C 50 78, 52 80, 50 82 C 48 84, 44 86, 44 89 C 44 92, 48 94, 52 92 L 58 87"
        fill="none" stroke="#0b5f59" stroke-width="3" stroke-linecap="round" stroke-linejoin="round"/>
</svg>
